<?xml version="1.0" encoding="UTF-8" standalone="no"?><!DOCTYPE svg PUBLIC "-//W3C//DTD SVG 1.1//EN" "http://www.w3.org/Graphics/SVG/1.1/DTD/svg11.dtd"><svg width="100%" height="100%" viewBox="0 0 200 200" version="1.1" xmlns="http://www.w3.org/2000/svg" xmlns:xlink="http://www.w3.org/1999/xlink" xml:space="preserve" xmlns:serif="http://www.serif.com/" style="fill-rule:evenodd;clip-rule:evenodd;stroke-linejoin:round;stroke-miterlimit:2;"><g><g id="Symbol_112_0_Layer0_0_FILL"><path d="M166.667,16.667l0,-16.667l-133.333,0l0,16.667l-8.333,0l0,-16.667l-25,0l0,25l16.667,0l0,8.333l-16.667,0l0,133.333l16.667,0l0,8.333l-16.667,0l0,25l25,0l0,-16.667l8.333,0l0,16.667l133.333,0l0,-16.667l8.333,0l0,16.667l25,0l0,-25l-16.667,0l0,-8.333l16.667,0l0,-133.333l-16.667,0l0,-8.333l16.667,0l0,-25l-25,0l0,16.667l-8.333,0m8.333,8.333l0,16.667l16.667,0l0,116.667l-16.667,0l0,16.667l-16.667,0l0,16.667l-116.667,0l0,-16.667l-16.667,0l0,-16.667l-16.667,0l0,-116.667l16.667,0l0,-16.667l16.667,0l0,-16.667l116.667,0l0,16.667l16.667,0m8.333,-8.333l0,-8.333l8.333,0l0,8.333l-8.333,0m8.333,166.667l0,8.333l-8.333,0l0,-8.333l8.333,0m-183.333,-166.667l-0,-8.333l8.333,0l0,8.333l-8.333,0m8.333,166.667l0,8.333l-8.333,0l0,-8.333l8.333,0Z" style="fill:#fbbf23;fill-rule:nonzero;"/></g></g></svg>