<?xml version="1.0" encoding="UTF-8" standalone="no"?><!DOCTYPE svg PUBLIC "-//W3C//DTD SVG 1.1//EN" "http://www.w3.org/Graphics/SVG/1.1/DTD/svg11.dtd"><svg width="100%" height="100%" viewBox="0 0 200 200" version="1.1" xmlns="http://www.w3.org/2000/svg" xmlns:xlink="http://www.w3.org/1999/xlink" xml:space="preserve" xmlns:serif="http://www.serif.com/" style="fill-rule:evenodd;clip-rule:evenodd;stroke-linejoin:round;stroke-miterlimit:2;"><g id="panel_border_010"><g><g id="Symbol_132_0_Layer0_0_FILL"><path d="M166.667,16.667l0,-16.667l-133.333,0l0,16.667l-8.333,0l0,-16.667l-25,0l0,25l16.667,0l0,8.333l-16.667,0l0,133.333l16.667,0l0,8.333l-16.667,0l0,25l25,0l0,-16.667l8.333,0l0,16.667l133.333,0l0,-16.667l8.333,0l0,16.667l25,0l0,-25l-16.667,0l0,-8.333l16.667,0l0,-133.333l-16.667,0l0,-8.333l16.667,0l0,-25l-25,0l0,16.667l-8.333,0m16.667,0l0,-8.333l8.333,0l0,8.333l-8.333,0m-16.667,16.667l0,-8.333l8.333,0l0,8.333l-8.333,0m-8.333,-25l0,33.333l33.333,0l0,116.667l-33.333,0l0,33.333l-116.667,0l0,-33.333l-33.333,0l0,-116.667l33.333,0l0,-33.333l116.667,0m33.333,175l0,8.333l-8.333,0l0,-8.333l8.333,0m-25,-8.333l0,-8.333l8.333,0l0,8.333l-8.333,0m-158.333,-158.333l0,-8.333l8.333,0l0,8.333l-8.333,0m16.667,8.333l8.333,0l0,8.333l-8.333,0l0,-8.333m0,150l0,-8.333l8.333,0l0,8.333l-8.333,0m-8.333,8.333l0,8.333l-8.333,0l0,-8.333l8.333,0Z" style="fill:#ffd600;fill-rule:nonzero;"/></g></g></g></svg>